<?xml version="1.0" encoding="UTF-8" standalone="no"?>
<!-- Created with Inkscape (http://www.inkscape.org/) -->

<svg
   xmlns:dc="http://purl.org/dc/elements/1.1/"
   xmlns:cc="http://creativecommons.org/ns#"
   xmlns:rdf="http://www.w3.org/1999/02/22-rdf-syntax-ns#"
   xmlns:svg="http://www.w3.org/2000/svg"
   xmlns="http://www.w3.org/2000/svg"
   xmlns:sodipodi="http://sodipodi.sourceforge.net/DTD/sodipodi-0.dtd"
   xmlns:inkscape="http://www.inkscape.org/namespaces/inkscape"
   width="238.55391mm"
   height="91.278954mm"
   viewBox="0 0 238.55391 91.278954"
   version="1.1"
   id="svg8"
   inkscape:version="0.92.1 r15371"
   sodipodi:docname="simple-web.svg">
  <defs
     id="defs2">
    <radialGradient
       r="11.69"
       gradientTransform="matrix(1.3993,-2.2344e-7,8.1962e-8,0.51326,4.3651,4.8393)"
       cx="14.288"
       cy="68.873001"
       gradientUnits="userSpaceOnUse"
       fy="72.568001"
       id="radialGradient30342">
      <stop
         offset="0"
         stop-opacity=".32673"
         id="stop2302" />
      <stop
         offset="1"
         stop-opacity="0"
         id="stop2304" />
    </radialGradient>
    <linearGradient
       y2="248.63"
       x2="153"
       gradientTransform="matrix(0.37857,0,0,0.37857,603.32,239.36)"
       y1="15.424"
       gradientUnits="userSpaceOnUse"
       x1="99.777"
       id="linearGradient30344">
      <stop
         offset="0"
         stop-color="#184375"
         id="stop53300-0" />
      <stop
         offset="1"
         stop-color="#C8BDDC"
         id="stop53302-8" />
    </linearGradient>
  </defs>
  <sodipodi:namedview
     id="base"
     pagecolor="#ffffff"
     bordercolor="#666666"
     borderopacity="1.0"
     inkscape:pageopacity="0.0"
     inkscape:pageshadow="2"
     inkscape:zoom="0.49497475"
     inkscape:cx="417.40489"
     inkscape:cy="-14.052305"
     inkscape:document-units="mm"
     inkscape:current-layer="layer1"
     showgrid="false"
     inkscape:window-width="1366"
     inkscape:window-height="704"
     inkscape:window-x="0"
     inkscape:window-y="27"
     inkscape:window-maximized="1"
     fit-margin-top="2"
     fit-margin-left="2"
     fit-margin-right="2"
     fit-margin-bottom="2" />
  <metadata
     id="metadata5">
    <rdf:RDF>
      <cc:Work
         rdf:about="">
        <dc:format>image/svg+xml</dc:format>
        <dc:type
           rdf:resource="http://purl.org/dc/dcmitype/StillImage" />
        <dc:title></dc:title>
      </cc:Work>
    </rdf:RDF>
  </metadata>
  <g
     inkscape:label="Calque 1"
     inkscape:groupmode="layer"
     id="layer1"
     transform="translate(-2.6436683,-62.476287)">
    <g
       id="g6430"
       transform="translate(95.250003,-8.9264919)">
      <g
         transform="matrix(0.48676239,0,0,0.48676239,-46.870548,29.577745)"
         id="g6234">
        <g
           id="g5475"
           transform="matrix(0.26458333,0,0,0.26458333,-52.69521,122.38089)">
          <g
             id="g5419">
            <path
               id="path5417"
               d="m 279.412,311.368 c -11.055,-1.759 -11.307,-32.157 -11.307,-32.157 0,0 32.484,-32.158 39.564,-75.401 19.045,0 30.809,-45.973 11.76,-62.148 C 320.227,124.635 343.91,8 224,8 104.089,8 127.775,124.635 128.568,141.662 c -19.047,16.175 -7.285,62.148 11.761,62.148 7.079,43.243 39.564,75.401 39.564,75.401 0,0 -0.252,30.398 -11.307,32.157 C 132.976,317.034 0,375.686 0,440 H 224 448 C 448,375.686 315.023,317.034 279.412,311.368 Z"
               inkscape:connector-curvature="0" />
          </g>
          <g
             id="g5421" />
          <g
             id="g5423" />
          <g
             id="g5425" />
          <g
             id="g5427" />
          <g
             id="g5429" />
          <g
             id="g5431" />
          <g
             id="g5433" />
          <g
             id="g5435" />
          <g
             id="g5437" />
          <g
             id="g5439" />
          <g
             id="g5441" />
          <g
             id="g5443" />
          <g
             id="g5445" />
          <g
             id="g5447" />
          <g
             id="g5449" />
        </g>
        <g
           id="g5934"
           transform="matrix(0.26458333,0,0,0.26458333,-89.850382,83.668914)">
          <g
             id="g5481">
            <g
               id="g5479">
              <path
                 id="path5477"
                 d="M 507.845,335.835 H 3.999 c -2.21,0 -3.999,1.788 -3.999,3.999 0,2.21 1.789,3.998 3.999,3.998 h 503.846 c 2.209,0 3.998,-1.788 3.998,-3.998 0,-2.211 -1.789,-3.999 -3.998,-3.999 z"
                 inkscape:connector-curvature="0" />
            </g>
          </g>
          <g
             id="g5487">
            <g
               id="g5485">
              <path
                 id="path5483"
                 d="m 255.921,351.815 c -8.818,0 -15.995,7.17 -15.995,15.995 0,8.825 7.177,15.995 15.995,15.995 8.818,0 15.996,-7.17 15.996,-15.995 0,-8.825 -7.178,-15.995 -15.996,-15.995 z m 0,23.992 c -4.413,0 -7.998,-3.592 -7.998,-7.997 0,-4.405 3.585,-7.997 7.998,-7.997 4.412,0 7.998,3.592 7.998,7.997 0,4.405 -3.586,7.997 -7.998,7.997 z"
                 inkscape:connector-curvature="0" />
            </g>
          </g>
          <g
             id="g5493">
            <g
               id="g5491">
              <path
                 id="path5489"
                 d="m 204.851,407.906 c -2.171,-0.453 -4.295,0.891 -4.772,3.039 l -15.995,71.978 c -0.477,2.155 0.883,4.288 3.038,4.771 0.289,0.063 0.586,0.094 0.867,0.094 1.835,0 3.491,-1.264 3.906,-3.132 l 15.995,-71.978 c 0.476,-2.155 -0.883,-4.288 -3.039,-4.772 z"
                 inkscape:connector-curvature="0" />
            </g>
          </g>
          <g
             id="g5499">
            <g
               id="g5497">
              <path
                 id="path5495"
                 d="m 327.759,482.923 -15.996,-71.978 c -0.476,-2.148 -2.583,-3.492 -4.771,-3.039 -2.156,0.484 -3.514,2.617 -3.037,4.772 l 15.994,71.978 c 0.414,1.867 2.07,3.132 3.904,3.132 0.281,0 0.578,-0.031 0.867,-0.094 2.156,-0.483 3.516,-2.616 3.039,-4.771 z"
                 inkscape:connector-curvature="0" />
            </g>
          </g>
          <g
             id="g5505">
            <g
               id="g5503">
              <path
                 id="path5501"
                 d="M 335.898,479.791 H 175.946 c -2.211,0 -3.999,1.788 -3.999,3.998 0,2.211 1.788,3.999 3.999,3.999 h 159.952 c 2.209,0 3.998,-1.788 3.998,-3.999 0,-2.21 -1.789,-3.998 -3.998,-3.998 z"
                 inkscape:connector-curvature="0" />
            </g>
          </g>
          <g
             id="g5511">
            <g
               id="g5509">
              <path
                 id="path5507"
                 d="M 483.851,48.048 H 27.991 c -2.21,0 -3.999,1.789 -3.999,3.999 v 263.919 c 0,2.21 1.789,3.999 3.999,3.999 h 455.86 c 2.211,0 4,-1.789 4,-3.999 V 52.047 c 0,-2.21 -1.789,-3.999 -4,-3.999 z m -3.998,263.919 H 31.99 V 56.046 h 447.863 z"
                 inkscape:connector-curvature="0" />
            </g>
          </g>
          <g
             id="g5517">
            <g
               id="g5515">
              <path
                 id="path5513"
                 d="M 483.851,24.056 H 27.991 C 12.559,24.056 0,36.614 0,52.047 V 371.95 c 0,15.432 12.558,27.991 27.991,27.991 h 455.86 c 15.433,0 27.992,-12.559 27.992,-27.992 V 52.047 c 0,-15.432 -12.558,-27.991 -27.992,-27.991 z m 19.994,347.893 c 0,11.027 -8.965,19.993 -19.994,19.993 H 27.991 c -11.028,0 -19.994,-8.966 -19.994,-19.993 V 52.047 c 0,-11.024 8.966,-19.994 19.994,-19.994 h 455.86 c 11.029,0 19.994,8.97 19.994,19.994 z"
                 inkscape:connector-curvature="0" />
            </g>
          </g>
          <g
             id="g5523">
            <g
               id="g5521">
              <path
                 id="path5519"
                 d="m 507.846,367.951 c -2.211,0 -4,1.788 -4,3.999 v 15.87 c 0,11.215 -8.777,19.993 -19.994,19.993 H 27.992 c -11.215,0 -19.994,-8.778 -19.994,-19.993 v -15.995 c 0,-2.211 -1.789,-3.999 -3.999,-3.999 -2.21,0 -3.999,1.788 -3.999,3.999 v 15.995 c 0,15.698 12.293,27.991 27.991,27.991 h 455.86 c 15.699,0 27.992,-12.293 27.993,-27.991 v -15.87 c 0,-2.211 -1.789,-3.999 -3.998,-3.999 z"
                 inkscape:connector-curvature="0" />
            </g>
          </g>
          <g
             id="g5529">
            <g
               id="g5527">
              <path
                 id="path5525"
                 d="m 43.986,48.048 c -2.21,0 -3.999,1.789 -3.999,3.999 v 263.919 c 0,2.21 1.789,3.999 3.999,3.999 2.21,0 3.999,-1.789 3.999,-3.999 V 52.047 c 0,-2.21 -1.789,-3.999 -3.999,-3.999 z"
                 inkscape:connector-curvature="0" />
            </g>
          </g>
          <g
             id="g5535">
            <g
               id="g5533">
              <path
                 id="path5531"
                 d="m 35.989,72.04 h -7.998 c -2.21,0 -3.999,1.788 -3.999,3.999 0,2.211 1.789,3.999 3.999,3.999 h 7.998 c 2.21,0 3.999,-1.788 3.999,-3.999 0,-2.211 -1.789,-3.999 -3.999,-3.999 z"
                 inkscape:connector-curvature="0" />
            </g>
          </g>
          <g
             id="g5541">
            <g
               id="g5539">
              <path
                 id="path5537"
                 d="m 35.989,96.033 h -7.998 c -2.21,0 -3.999,1.789 -3.999,3.999 0,2.21 1.789,3.999 3.999,3.999 h 7.998 c 2.21,0 3.999,-1.789 3.999,-3.999 0,-2.21 -1.789,-3.999 -3.999,-3.999 z"
                 inkscape:connector-curvature="0" />
            </g>
          </g>
          <g
             id="g5547">
            <g
               id="g5545">
              <path
                 id="path5543"
                 d="m 35.989,120.026 h -7.998 c -2.21,0 -3.999,1.788 -3.999,3.999 0,2.211 1.789,3.999 3.999,3.999 h 7.998 c 2.21,0 3.999,-1.788 3.999,-3.999 0,-2.211 -1.789,-3.999 -3.999,-3.999 z"
                 inkscape:connector-curvature="0" />
            </g>
          </g>
          <g
             id="g5553">
            <g
               id="g5551">
              <path
                 id="path5549"
                 d="m 35.989,144.019 h -7.998 c -2.21,0 -3.999,1.789 -3.999,3.999 0,2.21 1.789,3.999 3.999,3.999 h 7.998 c 2.21,0 3.999,-1.789 3.999,-3.999 0,-2.21 -1.789,-3.999 -3.999,-3.999 z"
                 inkscape:connector-curvature="0" />
            </g>
          </g>
          <g
             id="g5559">
            <g
               id="g5557">
              <path
                 id="path5555"
                 d="m 35.989,168.011 h -7.998 c -2.21,0 -3.999,1.788 -3.999,3.999 0,2.211 1.789,3.999 3.999,3.999 h 7.998 c 2.21,0 3.999,-1.788 3.999,-3.999 0,-2.211 -1.789,-3.999 -3.999,-3.999 z"
                 inkscape:connector-curvature="0" />
            </g>
          </g>
          <g
             id="g5565">
            <g
               id="g5563">
              <path
                 id="path5561"
                 d="m 35.989,192.004 h -7.998 c -2.21,0 -3.999,1.789 -3.999,3.999 0,2.21 1.789,3.999 3.999,3.999 h 7.998 c 2.21,0 3.998,-1.789 3.999,-3.999 0,-2.21 -1.789,-3.999 -3.999,-3.999 z"
                 inkscape:connector-curvature="0" />
            </g>
          </g>
          <g
             id="g5571">
            <g
               id="g5569">
              <path
                 id="path5567"
                 d="m 35.989,215.996 h -7.998 c -2.21,0 -3.999,1.789 -3.999,3.999 0,2.211 1.789,3.999 3.999,3.999 h 7.998 c 2.21,0 3.998,-1.788 3.999,-3.999 0,-2.21 -1.789,-3.999 -3.999,-3.999 z"
                 inkscape:connector-curvature="0" />
            </g>
          </g>
          <g
             id="g5577">
            <g
               id="g5575">
              <path
                 id="path5573"
                 d="m 35.989,239.989 h -7.998 c -2.21,0 -3.999,1.789 -3.999,3.999 0,2.21 1.789,3.999 3.999,3.999 h 7.998 c 2.21,0 3.998,-1.789 3.999,-3.999 0,-2.21 -1.789,-3.999 -3.999,-3.999 z"
                 inkscape:connector-curvature="0" />
            </g>
          </g>
          <g
             id="g5583">
            <g
               id="g5581">
              <path
                 id="path5579"
                 d="m 35.989,263.983 h -7.998 c -2.21,0 -3.999,1.788 -3.999,3.998 0,2.211 1.789,3.999 3.999,3.999 h 7.998 c 2.21,0 3.998,-1.788 3.999,-3.999 0,-2.21 -1.789,-3.998 -3.999,-3.998 z"
                 inkscape:connector-curvature="0" />
            </g>
          </g>
          <g
             id="g5589">
            <g
               id="g5587">
              <path
                 id="path5585"
                 d="m 35.989,287.975 h -7.998 c -2.21,0 -3.999,1.789 -3.999,3.999 0,2.21 1.789,3.999 3.999,3.999 h 7.998 c 2.21,0 3.999,-1.789 3.999,-3.999 0,-2.21 -1.789,-3.999 -3.999,-3.999 z"
                 inkscape:connector-curvature="0" />
            </g>
          </g>
          <g
             id="g5595">
            <g
               id="g5593">
              <path
                 id="path5591"
                 d="m 99.969,72.04 h -31.99 c -2.211,0 -3.999,1.788 -3.999,3.999 0,2.211 1.789,3.999 3.999,3.999 h 31.99 c 2.21,0 3.999,-1.788 3.999,-3.999 0,-2.211 -1.789,-3.999 -3.999,-3.999 z"
                 inkscape:connector-curvature="0" />
            </g>
          </g>
          <g
             id="g5601">
            <g
               id="g5599">
              <path
                 id="path5597"
                 d="m 227.929,96.033 h -95.97 c -2.211,0 -3.999,1.789 -3.999,3.999 0,2.21 1.789,3.999 3.999,3.999 h 95.97 c 2.211,0 3.999,-1.789 3.999,-3.999 0,-2.21 -1.788,-3.999 -3.999,-3.999 z"
                 inkscape:connector-curvature="0" />
            </g>
          </g>
          <g
             id="g5607">
            <g
               id="g5605">
              <path
                 id="path5603"
                 d="M 115.964,96.033 H 75.976 c -2.21,0 -3.999,1.789 -3.999,3.999 0,2.21 1.789,3.999 3.999,3.999 h 39.988 c 2.21,0 3.999,-1.789 3.999,-3.999 0,-2.21 -1.789,-3.999 -3.999,-3.999 z"
                 inkscape:connector-curvature="0" />
            </g>
          </g>
          <g
             id="g5613">
            <g
               id="g5611">
              <path
                 id="path5609"
                 d="m 227.929,120.026 h -7.997 c -2.21,0 -3.999,1.788 -3.999,3.999 0,2.211 1.789,3.999 3.999,3.999 h 7.997 c 2.211,0 3.999,-1.788 3.999,-3.999 0,-2.211 -1.788,-3.999 -3.999,-3.999 z"
                 inkscape:connector-curvature="0" />
            </g>
          </g>
          <g
             id="g5619">
            <g
               id="g5617">
              <path
                 id="path5615"
                 d="M 203.937,120.026 H 83.974 c -2.211,0 -3.999,1.788 -3.999,3.999 0,2.211 1.789,3.999 3.999,3.999 h 119.963 c 2.21,0 3.999,-1.788 3.999,-3.999 0,-2.211 -1.789,-3.999 -3.999,-3.999 z"
                 inkscape:connector-curvature="0" />
            </g>
          </g>
          <g
             id="g5625">
            <g
               id="g5623">
              <path
                 id="path5621"
                 d="M 107.967,168.011 H 83.974 c -2.211,0 -3.999,1.788 -3.999,3.999 0,2.211 1.789,3.999 3.999,3.999 h 23.992 c 2.21,0 4,-1.788 4,-3.999 0,-2.211 -1.789,-3.999 -3.999,-3.999 z"
                 inkscape:connector-curvature="0" />
            </g>
          </g>
          <g
             id="g5631">
            <g
               id="g5629">
              <path
                 id="path5627"
                 d="M 227.93,168.011 H 123.962 c -2.21,0 -3.999,1.788 -3.999,3.999 0,2.211 1.789,3.999 3.999,3.999 h 103.967 c 2.211,0 4,-1.788 4,-3.999 0,-2.211 -1.788,-3.999 -3.999,-3.999 z"
                 inkscape:connector-curvature="0" />
            </g>
          </g>
          <g
             id="g5637">
            <g
               id="g5635">
              <path
                 id="path5633"
                 d="M 227.929,144.019 H 91.971 c -2.21,0 -3.999,1.789 -3.999,3.999 0,2.21 1.789,3.999 3.999,3.999 h 135.958 c 2.211,0 3.999,-1.789 3.999,-3.999 0,-2.21 -1.788,-3.999 -3.999,-3.999 z"
                 inkscape:connector-curvature="0" />
            </g>
          </g>
          <g
             id="g5643">
            <g
               id="g5641">
              <path
                 id="path5639"
                 d="m 227.929,192.004 h -31.99 c -2.211,0 -3.999,1.789 -3.999,3.999 0,2.21 1.789,3.999 3.999,3.999 h 31.99 c 2.211,0 3.999,-1.789 3.999,-3.999 0,-2.21 -1.788,-3.999 -3.999,-3.999 z"
                 inkscape:connector-curvature="0" />
            </g>
          </g>
          <g
             id="g5649">
            <g
               id="g5647">
              <path
                 id="path5645"
                 d="M 203.937,215.996 H 75.976 c -2.21,0 -3.999,1.789 -3.999,3.999 0,2.211 1.789,3.999 3.999,3.999 h 127.961 c 2.21,0 3.999,-1.788 3.999,-3.999 0,-2.21 -1.789,-3.999 -3.999,-3.999 z"
                 inkscape:connector-curvature="0" />
            </g>
          </g>
          <g
             id="g5655">
            <g
               id="g5653">
              <path
                 id="path5651"
                 d="m 139.957,263.983 h -63.98 c -2.21,0 -3.999,1.788 -3.999,3.998 0,2.211 1.789,3.999 3.999,3.999 h 63.98 c 2.21,0 3.999,-1.788 3.999,-3.999 0,-2.21 -1.789,-3.998 -3.999,-3.998 z"
                 inkscape:connector-curvature="0" />
            </g>
          </g>
          <g
             id="g5661">
            <g
               id="g5659">
              <path
                 id="path5657"
                 d="m 227.929,239.989 h -39.987 c -2.21,0 -3.999,1.789 -3.999,3.999 0,2.21 1.789,3.999 3.999,3.999 h 39.987 c 2.211,0 3.999,-1.789 3.999,-3.999 0,-2.21 -1.788,-3.999 -3.999,-3.999 z"
                 inkscape:connector-curvature="0" />
            </g>
          </g>
          <g
             id="g5667">
            <g
               id="g5665">
              <path
                 id="path5663"
                 d="M 171.947,239.989 H 83.974 c -2.211,0 -3.999,1.789 -3.999,3.999 0,2.21 1.789,3.999 3.999,3.999 h 87.973 c 2.21,0 3.999,-1.789 3.999,-3.999 0,-2.21 -1.789,-3.999 -3.999,-3.999 z"
                 inkscape:connector-curvature="0" />
            </g>
          </g>
          <g
             id="g5673">
            <g
               id="g5671">
              <path
                 id="path5669"
                 d="m 99.969,287.975 h -31.99 c -2.211,0 -3.999,1.789 -3.999,3.999 0,2.21 1.789,3.999 3.999,3.999 h 31.99 c 2.21,0 3.999,-1.789 3.999,-3.999 0,-2.21 -1.789,-3.999 -3.999,-3.999 z"
                 inkscape:connector-curvature="0" />
            </g>
          </g>
          <g
             id="g5679">
            <g
               id="g5677">
              <path
                 id="path5675"
                 d="m 227.929,215.996 h -7.997 c -2.21,0 -3.999,1.789 -3.999,3.999 0,2.211 1.789,3.999 3.999,3.999 h 7.997 c 2.211,0 3.999,-1.788 3.999,-3.999 0,-2.21 -1.788,-3.999 -3.999,-3.999 z"
                 inkscape:connector-curvature="0" />
            </g>
          </g>
          <g
             id="g5685">
            <g
               id="g5683">
              <path
                 id="path5681"
                 d="M 179.945,192.004 H 83.974 c -2.211,0 -3.999,1.789 -3.999,3.999 0,2.21 1.789,3.999 3.999,3.999 h 95.97 c 2.211,0 3.999,-1.789 4,-3.999 0,-2.21 -1.789,-3.999 -3.999,-3.999 z"
                 inkscape:connector-curvature="0" />
            </g>
          </g>
          <g
             id="g5691">
            <g
               id="g5689">
              <path
                 id="path5687"
                 d="m 255.921,48.048 c -2.211,0 -3.999,1.789 -3.999,3.999 v 263.919 c 0,2.21 1.789,3.999 3.999,3.999 2.211,0 3.998,-1.789 3.998,-3.999 V 52.047 c 0,-2.21 -1.787,-3.999 -3.998,-3.999 z"
                 inkscape:connector-curvature="0" />
            </g>
          </g>
          <g
             id="g5697">
            <g
               id="g5695">
              <path
                 id="path5693"
                 d="m 455.21,265.803 -51.984,-79.976 c -1.469,-2.272 -5.232,-2.272 -6.701,0 l -51.984,79.976 c -1.203,1.85 -0.68,4.327 1.172,5.537 1.843,1.195 4.334,0.687 5.529,-1.179 l 48.633,-74.817 48.635,74.817 c 0.766,1.178 2.047,1.819 3.35,1.819 0.75,0 1.508,-0.204 2.178,-0.64 1.852,-1.21 2.375,-3.686 1.172,-5.537 z"
                 inkscape:connector-curvature="0" />
            </g>
          </g>
          <g
             id="g5703">
            <g
               id="g5701">
              <path
                 id="path5699"
                 d="m 366.981,241.45 -15.762,-23.625 c -0.742,-1.113 -1.992,-1.781 -3.326,-1.781 -1.336,0 -2.586,0.668 -3.328,1.781 l -31.99,47.938 c -1.227,1.835 -0.727,4.319 1.109,5.545 0.68,0.453 1.453,0.672 2.219,0.672 1.288,0 2.553,-0.625 3.326,-1.781 l 28.664,-42.952 12.434,18.639 c 1.227,1.843 3.709,2.319 5.545,1.109 1.836,-1.226 2.334,-3.71 1.109,-5.545 z"
                 inkscape:connector-curvature="0" />
            </g>
          </g>
          <g
             id="g5709">
            <g
               id="g5707">
              <path
                 id="path5705"
                 d="m 315.903,176.009 c -11.029,0 -19.994,8.97 -19.994,19.994 0,11.024 8.965,19.994 19.994,19.994 11.028,0 19.995,-8.97 19.994,-19.994 0,-11.024 -8.967,-19.994 -19.994,-19.994 z m 0,31.99 c -6.615,0 -11.996,-5.381 -11.996,-11.996 0,-6.615 5.381,-11.996 11.996,-11.996 6.616,0 11.996,5.381 11.996,11.996 0,6.615 -5.381,11.996 -11.996,11.996 z"
                 inkscape:connector-curvature="0" />
            </g>
          </g>
          <g
             id="g5715">
            <g
               id="g5713">
              <path
                 id="path5711"
                 d="M 459.858,160.014 H 283.913 c -2.211,0 -4,1.789 -4,3.999 v 103.968 c 0,2.211 1.789,3.999 4,3.999 h 175.946 c 2.21,0 3.998,-1.788 3.997,-3.999 V 164.013 c 0,-2.21 -1.787,-3.999 -3.998,-3.999 z M 455.86,263.983 H 287.911 V 168.012 H 455.86 Z"
                 inkscape:connector-curvature="0" />
            </g>
          </g>
          <g
             id="g5721">
            <g
               id="g5719">
              <path
                 id="path5717"
                 d="M 459.858,72.04 H 283.913 c -2.211,0 -4,1.788 -4,3.999 0,2.211 1.789,3.999 4,3.999 h 175.946 c 2.21,0 3.997,-1.788 3.997,-3.999 0,-2.211 -1.787,-3.999 -3.998,-3.999 z"
                 inkscape:connector-curvature="0" />
            </g>
          </g>
          <g
             id="g5727">
            <g
               id="g5725">
              <path
                 id="path5723"
                 d="m 459.859,72.041 c -2.211,0 -3.998,1.789 -3.998,3.999 v 63.98 c 0,2.211 1.787,3.999 3.998,3.999 2.21,0 3.998,-1.788 3.998,-3.999 V 76.04 c 0,-2.211 -1.787,-3.999 -3.998,-3.999 z"
                 inkscape:connector-curvature="0" />
            </g>
          </g>
          <g
             id="g5733">
            <g
               id="g5731">
              <path
                 id="path5729"
                 d="M 459.858,136.021 H 283.913 c -2.211,0 -4,1.788 -4,3.999 0,2.211 1.789,3.999 4,3.999 h 175.946 c 2.21,0 3.997,-1.788 3.997,-3.999 0,-2.211 -1.787,-3.999 -3.998,-3.999 z"
                 inkscape:connector-curvature="0" />
            </g>
          </g>
          <g
             id="g5739">
            <g
               id="g5737">
              <path
                 id="path5735"
                 d="M 435.866,104.03 H 283.913 c -2.211,0 -4,1.788 -4,3.999 0,2.211 1.789,3.999 4,3.999 h 151.953 c 2.209,0 3.998,-1.788 3.998,-3.999 0,-2.211 -1.789,-3.999 -3.998,-3.999 z"
                 inkscape:connector-curvature="0" />
            </g>
          </g>
          <g
             id="g5745">
            <g
               id="g5743">
              <path
                 id="path5741"
                 d="M 459.858,287.975 H 283.913 c -2.211,0 -4,1.789 -4,3.999 0,2.21 1.789,3.999 4,3.999 h 175.946 c 2.21,0 3.997,-1.789 3.997,-3.999 0,-2.21 -1.787,-3.999 -3.998,-3.999 z"
                 inkscape:connector-curvature="0" />
            </g>
          </g>
          <g
             id="g5747" />
          <g
             id="g5749" />
          <g
             id="g5751" />
          <g
             id="g5753" />
          <g
             id="g5755" />
          <g
             id="g5757" />
          <g
             id="g5759" />
          <g
             id="g5761" />
          <g
             id="g5763" />
          <g
             id="g5765" />
          <g
             id="g5767" />
          <g
             id="g5769" />
          <g
             id="g5771" />
          <g
             id="g5773" />
          <g
             id="g5775" />
        </g>
      </g>
      <text
         id="text6252"
         y="160.15799"
         x="-68.209862"
         style="font-style:normal;font-weight:normal;font-size:10.58333302px;line-height:1.25;font-family:sans-serif;letter-spacing:0px;word-spacing:0px;fill:#000000;fill-opacity:1;stroke:none;stroke-width:0.26458332"
         xml:space="preserve"><tspan
           style="stroke-width:0.26458332"
           y="160.15799"
           x="-68.209862"
           id="tspan6250"
           sodipodi:role="line">Client</tspan></text>
    </g>
    <g
       id="g6489"
       transform="translate(2.1381562)">
      <g
         transform="matrix(0.1560625,0,0,0.1560625,164.64642,64.476287)"
         id="g6063">
        <g
           id="g5940">
          <rect
             y="0"
             x="0"
             style="fill:#f6bf58"
             width="368"
             height="104"
             id="rect5936" />
          <rect
             x="0"
             y="120"
             style="fill:#f6bf58"
             width="368"
             height="96"
             id="rect5938" />
        </g>
        <g
           id="g5946">
          <polygon
             style="fill:#e74c3c"
             points="368,232 0,232 0,328 232,328 368,328 "
             id="polygon5942" />
          <path
             inkscape:connector-curvature="0"
             style="fill:#e74c3c"
             d="m 0,344 v 88 c 0,17.672 14.328,32 32,32 H 368 V 344 Z"
             id="path5944" />
        </g>
        <rect
           x="208"
           y="280"
           style="fill:#34495e"
           width="96"
           height="16"
           id="rect5948" />
        <path
           inkscape:connector-curvature="0"
           style="fill:#66cedb"
           d="m 412,464 c 28.72,0 52,-23.28 52,-52 0,-28.72 -23.28,-52 -52,-52 -4.192,0 -8.248,0.552 -12.152,1.488 0.032,-0.504 0.152,-0.976 0.152,-1.488 0,-13.256 -10.744,-24 -24,-24 -1.384,0 -2.72,0.184 -4.032,0.408 C 362.184,308.248 335.488,288 304,288 c -39.768,0 -72,32.232 -72,72 0,2.992 0.24,5.92 0.592,8.808 C 229.8,368.304 226.936,368 224,368 c -26.512,0 -48,21.488 -48,48 0,26.512 21.488,48 48,48 z"
           id="path5950" />
        <path
           inkscape:connector-curvature="0"
           style="fill:#ffffff"
           d="m 272,416 h -16 c 0,-35.288 28.712,-64 64,-64 v 16 c -26.472,0 -48,21.528 -48,48 z"
           id="path5952" />
        <g
           id="g5962">
          <rect
             x="208"
             y="24"
             style="fill:#ce9232"
             width="128"
             height="16"
             id="rect5954" />
          <rect
             x="208"
             y="56"
             style="fill:#ce9232"
             width="128"
             height="16"
             id="rect5956" />
          <rect
             x="208"
             y="136"
             style="fill:#ce9232"
             width="128"
             height="16"
             id="rect5958" />
          <rect
             x="208"
             y="168"
             style="fill:#ce9232"
             width="128"
             height="16"
             id="rect5960" />
        </g>
        <rect
           x="208"
           y="248"
           style="fill:#34495e"
           width="128"
           height="16"
           id="rect5964" />
        <g
           id="g5974">
          <rect
             x="32"
             y="72"
             style="fill:#ce9232"
             width="104"
             height="16"
             id="rect5966" />
          <rect
             x="152"
             y="72"
             style="fill:#ce9232"
             width="16"
             height="16"
             id="rect5968" />
          <rect
             x="32"
             y="184"
             style="fill:#ce9232"
             width="104"
             height="16"
             id="rect5970" />
          <rect
             x="152"
             y="184"
             style="fill:#ce9232"
             width="16"
             height="16"
             id="rect5972" />
        </g>
        <g
           id="g5984">
          <rect
             x="32"
             y="296"
             style="fill:#34495e"
             width="104"
             height="16"
             id="rect5976" />
          <rect
             x="152"
             y="296"
             style="fill:#34495e"
             width="16"
             height="16"
             id="rect5978" />
          <rect
             x="32"
             y="424"
             style="fill:#34495e"
             width="88"
             height="16"
             id="rect5980" />
          <rect
             x="136"
             y="424"
             style="fill:#34495e"
             width="16"
             height="16"
             id="rect5982" />
        </g>
        <g
           id="g5986" />
        <g
           id="g5988" />
        <g
           id="g5990" />
        <g
           id="g5992" />
        <g
           id="g5994" />
        <g
           id="g5996" />
        <g
           id="g5998" />
        <g
           id="g6000" />
        <g
           id="g6002" />
        <g
           id="g6004" />
        <g
           id="g6006" />
        <g
           id="g6008" />
        <g
           id="g6010" />
        <g
           id="g6012" />
        <g
           id="g6014" />
      </g>
      <text
         id="text6256"
         y="151.60538"
         x="179.78702"
         style="font-style:normal;font-weight:normal;font-size:10.58333302px;line-height:1.25;font-family:sans-serif;letter-spacing:0px;word-spacing:0px;fill:#000000;fill-opacity:1;stroke:none;stroke-width:0.26458332"
         xml:space="preserve"><tspan
           style="stroke-width:0.26458332"
           y="151.60538"
           x="179.78702"
           id="tspan6254"
           sodipodi:role="line">Serveur</tspan></text>
    </g>
    <g
       id="g6444"
       transform="translate(0,-4.0789047)">
      <g
         style="fill:#ff6600"
         transform="matrix(0.43036335,0,0,1,88.263112,0)"
         id="g6242">
        <rect
           style="opacity:1;fill:#ff6600;fill-opacity:1;stroke:none;stroke-width:0.43199998;stroke-miterlimit:4;stroke-dasharray:none;stroke-opacity:1"
           id="rect6236"
           width="164.04167"
           height="4.5357141"
           x="-18.23737"
           y="79.502983" />
        <path
           sodipodi:type="star"
           style="opacity:1;fill:#ff6600;fill-opacity:1;stroke:none;stroke-width:0.43199998;stroke-miterlimit:4;stroke-dasharray:none;stroke-opacity:1"
           id="path6238"
           sodipodi:sides="3"
           sodipodi:cx="148.85165"
           sodipodi:cy="81.770844"
           sodipodi:r1="6.0946832"
           sodipodi:r2="3.0473416"
           sodipodi:arg1="2.0943951"
           sodipodi:arg2="3.1415927"
           inkscape:flatsided="true"
           inkscape:rounded="0"
           inkscape:randomized="0"
           d="m 145.80431,87.048994 0,-10.556301 9.14203,5.27815 z"
           inkscape:transform-center-x="-1.5236727" />
      </g>
      <g
         style="fill:#0088aa"
         id="g6436"
         transform="matrix(-0.43036335,0,0,1,147.09764,31.750001)">
        <rect
           y="79.502983"
           x="-18.23737"
           height="4.5357141"
           width="164.04167"
           id="rect6432"
           style="opacity:1;fill:#0088aa;fill-opacity:1;stroke:none;stroke-width:0.43199998;stroke-miterlimit:4;stroke-dasharray:none;stroke-opacity:1" />
        <path
           inkscape:transform-center-x="-1.5236727"
           d="m 145.80431,87.048994 0,-10.556301 9.14203,5.27815 z"
           inkscape:randomized="0"
           inkscape:rounded="0"
           inkscape:flatsided="true"
           sodipodi:arg2="3.1415927"
           sodipodi:arg1="2.0943951"
           sodipodi:r2="3.0473416"
           sodipodi:r1="6.0946832"
           sodipodi:cy="81.770844"
           sodipodi:cx="148.85165"
           sodipodi:sides="3"
           id="path6434"
           style="opacity:1;fill:#0088aa;fill-opacity:1;stroke:none;stroke-width:0.43199998;stroke-miterlimit:4;stroke-dasharray:none;stroke-opacity:1"
           sodipodi:type="star" />
      </g>
    </g>
  </g>
</svg>
